<?xml version="1.0" encoding="UTF-8" standalone="no"?>
<svg
   xmlns:dc="http://purl.org/dc/elements/1.1/"
   xmlns:cc="http://web.resource.org/cc/"
   xmlns:rdf="http://www.w3.org/1999/02/22-rdf-syntax-ns#"
   xmlns:svg="http://www.w3.org/2000/svg"
   xmlns="http://www.w3.org/2000/svg"
   xmlns:sodipodi="http://sodipodi.sourceforge.net/DTD/sodipodi-0.dtd"
   xmlns:inkscape="http://www.inkscape.org/namespaces/inkscape"
   version="1.0"
   width="400pt"
   height="400pt"
   id="svg559"
   sodipodi:version="0.32"
   inkscape:version="0.45.1"
   sodipodi:docname="Inkscape.svg"
   inkscape:output_extension="org.inkscape.output.svg.inkscape"
   sodipodi:docbase="C:\Documents and Settings\Radka\Plocha">
  <sodipodi:namedview
     inkscape:window-height="480"
     inkscape:window-width="640"
     inkscape:pageshadow="2"
     inkscape:pageopacity="0.0"
     guidetolerance="10.0"
     gridtolerance="10.0"
     objecttolerance="10.0"
     borderopacity="1.0"
     bordercolor="#666666"
     pagecolor="#ffffff"
     id="base" />
  <metadata
     id="metadata10">
    <rdf:RDF>
      <cc:Work
         rdf:about="">
        <dc:format>image/svg+xml</dc:format>
        <dc:type
           rdf:resource="http://purl.org/dc/dcmitype/StillImage" />
      </cc:Work>
    </rdf:RDF>
  </metadata>
  <defs
     id="defs561">
    <filter
       inkscape:collect="always"
       x="-0.38263668"
       width="1.7652734"
       y="-0.39502547"
       height="1.7900509"
       id="filter3272">
      <feGaussianBlur
         inkscape:collect="always"
         stdDeviation="63.266411"
         id="feGaussianBlur3274" />
    </filter>
  </defs>
  <path
     id="path2165"
     d="M 249.515,45.634377 C 238.20163,45.634377 226.9094,49.954935 218.24026,58.62407 L 64.14857,212.6865 C 55.65167,221.18324 51.3863,232.22997 51.21739,243.31761 L 51.15888,243.31761 C 51.15888,243.35708 51.21546,243.39506 51.21739,243.43463 C 51.21503,243.62072 51.15888,243.8044 51.15888,243.99049 L 51.42218,243.99049 C 54.3713,255.21101 130.57169,269.51382 139.07336,278.0153 C 151.91241,290.85447 89.8399,300.28335 102.6788,313.12258 C 115.51786,325.96163 180.26903,337.96514 193.1093,350.80438 C 205.94838,363.64345 166.8708,377.31473 179.71002,390.1538 C 192.54909,402.99302 235.67671,386.94441 227.8655,420.43382 C 245.20379,437.7721 281.37772,429.49264 305.59887,412.15436 C 318.43793,399.31529 280.9695,400.44761 293.80867,387.60852 C 306.64774,374.76929 339.05598,374.70004 366.36372,343.98773 C 355.37209,326.893 319.38271,319.6132 332.22189,306.77401 C 345.06095,293.93495 370.02178,300.45607 423.88114,275.99663 C 450.17307,264.05582 448.00106,254.98643 447.90037,243.99049 C 447.89826,243.75911 447.90037,243.55076 447.90037,243.31761 L 447.84186,243.31761 C 447.673,232.22996 443.37815,221.18324 434.88143,212.6865 L 280.81898,58.62407 C 272.14985,49.954935 260.82836,45.634377 249.515,45.634377 z "
     style="fill:#404040;fill-opacity:1;fill-rule:evenodd" />
  <path
     id="path2162"
     d="M 248.19848,65.674779 C 253.22797,65.805803 257.29011,69.639858 265.25476,74.802672 L 338.04385,128.78011 C 343.52618,132.3473 347.53364,137.45289 347.61896,143.7007 L 304.48715,122.87039 L 300.1865,155.43239 L 276.45982,144.31508 L 239.83124,168.77315 L 225.81758,120.44214 L 207.7666,162.71714 L 157.35839,167.74919 L 157.91426,145.30979 C 157.91426,139.92007 186.97155,102.18774 204.66545,93.204742 L 237.05191,69.946167 C 241.83064,66.848474 245.18078,65.596167 248.19848,65.674779 z M 181.20208,285.88517 C 204.14619,291.83549 229.67769,299.64222 250.15863,299.78181 L 251.03631,308.99747 C 233.4982,307.18969 196.38816,298.72196 187.63842,294.25241 L 181.20208,285.88517 z "
     style="fill:#000000;fill-opacity:1;fill-rule:evenodd" />
  <path
     id="droplet03"
     d="M 406.37319,331.61541 C 416.62522,334.11585 436.36302,347.39056 426.01963,358.96368 C 415.67715,370.54173 389.98597,350.644 375.16168,334.34168 C 380.50716,320.13624 401.54148,330.43615 406.37319,331.61541 z "
     style="fill:#ff0000;fill-opacity:1;fill-rule:evenodd" />
  <path
     d="M 155.51648,194.93971 C 153.68224,195.42892 138.35859,182.22394 126.22363,188.34437 C 114.09176,194.46393 105.9473,208.16723 117.2813,213.79039 C 128.61638,219.41355 136.71887,212.92924 146.65567,205.95176 C 156.59357,198.97534 156.235,197.63117 155.51648,194.93971 z "
     id="path2163"
     style="fill:#ff0000;fill-opacity:1;fill-rule:evenodd" />
  <path
     id="path2166"
     d="M 370.3706,173.71955 C 368.53636,174.20876 353.21271,161.00378 341.07775,167.12421 C 328.94588,173.24377 320.80142,186.94707 332.13542,192.57023 C 343.4705,198.19339 351.57299,191.70908 361.50979,184.7316 C 371.44769,177.75518 371.08912,176.41101 370.3706,173.71955 z "
     style="fill:#ff0000;fill-opacity:1;fill-rule:evenodd" />
  <path
     d="M 250.851,80.263638 C 255.88049,80.394662 259.94263,84.228717 267.90728,89.391531 L 340.69637,143.36897 C 346.1787,146.93616 350.18616,152.04175 350.27148,158.28956 L 307.13967,137.45925 L 302.83902,170.02125 L 279.11234,158.90394 L 242.48376,183.36201 L 228.4701,135.031 L 210.41912,177.306 L 160.01091,182.33805 L 160.56678,159.89865 C 160.56678,154.50893 189.62407,116.7766 207.31797,107.7936 L 239.70443,84.535026 C 244.48316,81.437333 247.8333,80.185026 250.851,80.263638 z M 183.8546,300.47403 C 206.79871,306.42435 232.33021,314.23108 252.81115,314.37067 L 253.68883,323.58633 C 236.15072,321.77855 199.04068,313.31082 190.29094,308.84127 L 183.8546,300.47403 z "
     id="path2168"
     style="fill:#000000;fill-opacity:1;fill-rule:evenodd" />
  <path
     d="M 342.03368,165.83079 C 360.85773,169.59518 364.62418,182.77272 360.85773,186.53713 C 357.09432,190.30251 347.68226,194.06692 340.15239,188.41925 C 332.62054,182.77272 332.62054,169.59518 342.03368,165.83079 z "
     id="path2170"
     style="fill:#000000;fill-opacity:1;fill-rule:evenodd" />
  <path
     id="path2172"
     d="M 127.17957,187.05095 C 146.00362,190.81534 149.77007,203.99288 146.00362,207.75729 C 142.24021,211.52267 132.82815,215.28708 125.29828,209.63941 C 117.76643,203.99288 117.76643,190.81534 127.17957,187.05095 z "
     style="fill:#000000;fill-opacity:1;fill-rule:evenodd" />
  <path
     style="fill:#ff0000;fill-opacity:1;fill-rule:evenodd"
     d="M 112.83385,376.29324 C 123.07123,373.73347 146.71962,376.29324 142.95317,391.35102 C 139.18983,406.41274 107.18926,400.76295 86.480001,393.23624 C 84.597701,378.17551 108.00866,377.49891 112.83385,376.29324 z "
     id="path2238" />
  <path
     id="path2240"
     d="M 225.02775,248.11214 C 222.58219,237.84687 225.40527,214.22847 240.42015,218.16244 C 255.43901,222.09335 249.43305,254.02899 241.67609,274.65311 C 226.59532,276.3675 226.17959,252.95046 225.02775,248.11214 z "
     style="fill:#000000;fill-opacity:1;fill-rule:evenodd" />
  <path
     id="path2242"
     d="M 278.85317,444.60003 C 286.40668,437.23111 308.12406,427.52781 312.45692,442.43248 C 316.79445,457.33899 286.30556,468.58106 264.6246,472.51308 C 255.41081,460.45179 275.29256,448.07251 278.85317,444.60003 z "
     style="fill:#ff0000;fill-opacity:1;fill-rule:evenodd" />
  <text
     xml:space="preserve"
     style="font-size:12px;font-style:normal;font-weight:normal;fill:#000000;fill-opacity:1;stroke:none;stroke-width:1px;stroke-linecap:butt;stroke-linejoin:miter;stroke-opacity:1;font-family:Bitstream Vera Sans"
     x="283.63281"
     y="453.82813"
     id="text2244"><tspan
       sodipodi:role="line"
       id="tspan2246"
       x="283.63281"
       y="453.82813"></tspan></text>
  <path
     style="opacity:0.49473685;fill:#404040;fill-opacity:1;fill-rule:evenodd;filter:url(#filter3272)"
     d="M 250.40094,80.186101 C 239.08757,80.186101 227.79534,84.506659 219.1262,93.175794 L 65.034512,247.23822 C 56.537612,255.73496 52.272242,266.78169 52.103332,277.86933 L 52.044822,277.86933 C 52.044822,277.9088 52.101402,277.94678 52.103332,277.98635 C 52.100972,278.17244 52.044822,278.35612 52.044822,278.54221 L 52.308122,278.54221 C 55.257242,289.76273 131.45763,304.06554 139.9593,312.56702 C 152.79835,325.40619 90.725842,334.83507 103.56474,347.6743 C 116.4038,360.51335 181.15497,372.51686 193.99524,385.3561 C 206.83432,398.19517 167.75674,411.86645 180.59596,424.70552 C 193.43503,437.54474 236.56265,421.49613 228.75144,454.98554 C 246.08973,472.32382 282.26366,464.04436 306.48481,446.70608 C 319.32387,433.86701 281.85544,434.99933 294.69461,422.16024 C 307.53368,409.32101 339.94192,409.25176 367.24966,378.53945 C 356.25803,361.44472 320.26865,354.16492 333.10783,341.32573 C 345.94689,328.48667 370.90772,335.00779 424.76708,310.54835 C 451.05901,298.60754 448.887,289.53815 448.78631,278.54221 C 448.7842,278.31083 448.78631,278.10248 448.78631,277.86933 L 448.7278,277.86933 C 448.55894,266.78168 444.26409,255.73496 435.76737,247.23822 L 281.70492,93.175794 C 273.03579,84.506659 261.7143,80.186101 250.40094,80.186101 z "
     id="path2250" />
</svg>
